<?xml version="1.0" encoding="UTF-8"?>
<svg id="_图层_2" data-name="图层 2" xmlns="http://www.w3.org/2000/svg" xmlns:xlink="http://www.w3.org/1999/xlink" viewBox="0 0 56.73 56.73">
  <defs>
    <style>
      .cls-1 {
        fill: url(#_未命名的渐变_6-2);
      }

      .cls-1, .cls-2, .cls-3, .cls-4, .cls-5 {
        stroke-width: 0px;
      }

      .cls-2 {
        fill: url(#_未命名的渐变_6-4);
      }

      .cls-3 {
        fill: url(#_未命名的渐变_6);
      }

      .cls-4 {
        fill: url(#_未命名的渐变_6-3);
      }

      .cls-5 {
        fill: url(#_未命名的渐变_6-5);
      }
    </style>
    <linearGradient id="_未命名的渐变_6" data-name="未命名的渐变 6" x1="9.43" y1="18.55" x2="47.3" y2="18.55" gradientUnits="userSpaceOnUse">
      <stop offset="0" stop-color="#00a0e9"/>
      <stop offset="1" stop-color="#036eb8"/>
    </linearGradient>
    <linearGradient id="_未命名的渐变_6-2" data-name="未命名的渐变 6" x1="32.74" y1="42.16" x2="36.36" y2="42.16" xlink:href="#_未命名的渐变_6"/>
    <linearGradient id="_未命名的渐变_6-3" data-name="未命名的渐变 6" x1="37.53" y1="42.16" x2="41.16" y2="42.16" xlink:href="#_未命名的渐变_6"/>
    <linearGradient id="_未命名的渐变_6-4" data-name="未命名的渐变 6" x1="42.33" y1="42.16" x2="45.96" y2="42.16" xlink:href="#_未命名的渐变_6"/>
    <linearGradient id="_未命名的渐变_6-5" data-name="未命名的渐变 6" x1="0" y1="28.36" x2="56.73" y2="28.36" xlink:href="#_未命名的渐变_6"/>
  </defs>
  <g id="_图层_1-2" data-name="图层 1">
    <g>
      <path class="cls-3" d="m18.12,10.77v2.29c0,4.79-3.9,8.69-8.69,8.69v4.59c6.54,0,11.99-4.75,13.08-10.98h11.71c1.09,6.23,6.54,10.98,13.08,10.98v-4.59c-4.79,0-8.69-3.9-8.69-8.69v-2.29h-20.49Z"/>
      <path class="cls-1" d="m32.74,42.16c0,1,.81,1.81,1.81,1.81s1.81-.81,1.81-1.81-.81-1.81-1.81-1.81-1.81.81-1.81,1.81Z"/>
      <path class="cls-4" d="m37.53,42.16c0,1,.81,1.81,1.81,1.81s1.81-.81,1.81-1.81-.81-1.81-1.81-1.81-1.81.81-1.81,1.81Z"/>
      <path class="cls-2" d="m42.33,42.16c0,1,.81,1.81,1.81,1.81s1.81-.81,1.81-1.81-.81-1.81-1.81-1.81-1.81.81-1.81,1.81Z"/>
      <path class="cls-5" d="m28.36,0C12.7,0,0,12.7,0,28.36c0,3.62.69,7.08,1.93,10.26h4.39c-1.46-3.12-2.28-6.59-2.28-10.26C4.04,14.93,14.93,4.04,28.36,4.04s24.32,10.89,24.32,24.32c0,.42-.01.83-.03,1.24h-20.65v-7.9h-4.59v18.1h-2.79v-13.43h-10.77v13.98h-6.67s0-.02-.01-.02H2.65c.07.15.14.31.21.47.62,1.28,1.34,2.5,2.15,3.67,5.12,7.41,13.67,12.27,23.36,12.27,13.07,0,24.07-8.84,27.35-20.87h-4.22c-3.16,9.76-12.32,16.83-23.14,16.83-7.26,0-13.78-3.19-18.23-8.23h8.33v-13.5h1.59v13.43h11.96v-10.2h24.12c.31-1.49.5-3.02.57-4.59.02-.41.03-.82.03-1.24C56.73,12.7,44.03,0,28.36,0Z"/>
    </g>
  </g>
</svg>